<?xml version="1.0" encoding="UTF-8" standalone="no"?>
<!-- Created with Inkscape (http://www.inkscape.org/) -->

<svg
   xmlns:dc="http://purl.org/dc/elements/1.1/"
   xmlns:cc="http://creativecommons.org/ns#"
   xmlns:rdf="http://www.w3.org/1999/02/22-rdf-syntax-ns#"
   xmlns:svg="http://www.w3.org/2000/svg"
   xmlns="http://www.w3.org/2000/svg"
   version="1.0"
   width="157.64218"
   height="106.33039"
   id="svg2">
  <defs
     id="defs4" />
  <metadata
     id="metadata7">
    <rdf:RDF>
      <cc:Work
         rdf:about="">
        <dc:format>image/svg+xml</dc:format>
        <dc:type
           rdf:resource="http://purl.org/dc/dcmitype/StillImage" />
        <dc:title></dc:title>
        <dc:date>3/27/06</dc:date>
        <dc:creator>
          <cc:Agent>
            <dc:title>Robert Ricci</dc:title>
          </cc:Agent>
        </dc:creator>
        <dc:rights>
          <cc:Agent>
            <dc:title>University of Utah, School of Computing, Flux Group</dc:title>
          </cc:Agent>
        </dc:rights>
      </cc:Work>
    </rdf:RDF>
  </metadata>
  <g
     transform="translate(8.0449154,-3.5159479)"
     id="layer3"
     style="display:inline">
    <text
       x="-11.64179"
       y="109.08384"
       id="text3057"
       xml:space="preserve"
       style="font-size:48px;font-style:normal;font-variant:normal;font-weight:normal;font-stretch:normal;text-align:start;line-height:125%;letter-spacing:0px;word-spacing:0px;writing-mode:lr-tb;text-anchor:start;fill:#000000;fill-opacity:1;stroke:none;font-family:Arial;-inkscape-font-specification:Arial"><tspan
         x="-11.64179"
         y="109.08384"
         id="tspan3059">Emulab</tspan></text>
  </g>
  <g
     transform="translate(8.0449154,-3.5159479)"
     id="layer1">
    <g
       transform="matrix(0.8,0,0,0.8,21.476119,0.7619092)"
       id="g3266"
       style="stroke:#000000;stroke-width:1.5;stroke-miterlimit:4;stroke-opacity:1;stroke-dasharray:none">
      <g
         id="g3182"
         style="stroke:#000000;stroke-width:1.5;stroke-miterlimit:4;stroke-opacity:1;stroke-dasharray:none">
        <path
           d="m 43.639094,-8.125 a 5.5140939,5.5140939 0 1 1 -11.028188,0 5.5140939,5.5140939 0 1 1 11.028188,0 z"
           transform="matrix(1.144103,0,0,1.144027,16.21204,20.04604)"
           id="path1394"
           style="color:#000000;fill:#ccfdd1;fill-opacity:1;fill-rule:evenodd;stroke:#000000;stroke-width:1.31111431;stroke-linecap:butt;stroke-linejoin:round;stroke-miterlimit:4;stroke-opacity:1;stroke-dasharray:none;stroke-dashoffset:0;marker:none;visibility:visible;display:inline;overflow:visible" />
        <path
           d="m 43.639094,-8.125 a 5.5140939,5.5140939 0 1 1 -11.028188,0 5.5140939,5.5140939 0 1 1 11.028188,0 z"
           transform="matrix(1.144103,0,0,1.144027,33.40521,20.78061)"
           id="path2278"
           style="color:#000000;fill:#ccfdd1;fill-opacity:1;fill-rule:evenodd;stroke:#000000;stroke-width:1.31111431;stroke-linecap:butt;stroke-linejoin:round;stroke-miterlimit:4;stroke-opacity:1;stroke-dasharray:none;stroke-dashoffset:0;marker:none;visibility:visible;display:inline;overflow:visible" />
        <path
           d="m 43.639094,-8.125 a 5.5140939,5.5140939 0 1 1 -11.028188,0 5.5140939,5.5140939 0 1 1 11.028188,0 z"
           transform="matrix(1.144103,0,0,1.144027,42.49658,35.55408)"
           id="path2280"
           style="color:#000000;fill:#ccfdd1;fill-opacity:1;fill-rule:evenodd;stroke:#000000;stroke-width:1.31111431;stroke-linecap:butt;stroke-linejoin:round;stroke-miterlimit:4;stroke-opacity:1;stroke-dasharray:none;stroke-dashoffset:0;marker:none;visibility:visible;display:inline;overflow:visible" />
        <path
           d="m 43.639094,-8.125 a 5.5140939,5.5140939 0 1 1 -11.028188,0 5.5140939,5.5140939 0 1 1 11.028188,0 z"
           transform="matrix(1.144103,0,0,1.144027,34.16281,50.70637)"
           id="path2282"
           style="color:#000000;fill:#ccfdd1;fill-opacity:1;fill-rule:evenodd;stroke:#000000;stroke-width:1.31111431;stroke-linecap:butt;stroke-linejoin:round;stroke-miterlimit:4;stroke-opacity:1;stroke-dasharray:none;stroke-dashoffset:0;marker:none;visibility:visible;display:inline;overflow:visible" />
        <path
           d="m 43.639094,-8.125 a 5.5140939,5.5140939 0 1 1 -11.028188,0 5.5140939,5.5140939 0 1 1 11.028188,0 z"
           transform="matrix(1.144103,0,0,1.144027,16.61142,50.32757)"
           id="path2284"
           style="color:#000000;fill:#ccfdd1;fill-opacity:1;fill-rule:evenodd;stroke:#000000;stroke-width:1.31111431;stroke-linecap:butt;stroke-linejoin:round;stroke-miterlimit:4;stroke-opacity:1;stroke-dasharray:none;stroke-dashoffset:0;marker:none;visibility:visible;display:inline;overflow:visible" />
        <path
           d="m 43.639094,-8.125 a 5.5140939,5.5140939 0 1 1 -11.028188,0 5.5140939,5.5140939 0 1 1 11.028188,0 z"
           transform="matrix(1.144103,0,0,1.144027,7.014966,35.30154)"
           id="path2286"
           style="color:#000000;fill:#ccfdd1;fill-opacity:1;fill-rule:evenodd;stroke:#000000;stroke-width:1.31111431;stroke-linecap:butt;stroke-linejoin:round;stroke-miterlimit:4;stroke-opacity:1;stroke-dasharray:none;stroke-dashoffset:0;marker:none;visibility:visible;display:inline;overflow:visible" />
        <path
           d="m 43.639094,-8.125 a 5.5140939,5.5140939 0 1 1 -11.028188,0 5.5140939,5.5140939 0 1 1 11.028188,0 z"
           transform="matrix(1.144103,0,0,1.144027,24.4401,35.30155)"
           id="path2288"
           style="color:#000000;fill:#1be12d;fill-opacity:1;fill-rule:evenodd;stroke:#000000;stroke-width:1.31111431;stroke-linecap:butt;stroke-linejoin:round;stroke-miterlimit:4;stroke-opacity:1;stroke-dasharray:none;stroke-dashoffset:0;marker:none;visibility:visible;display:inline;overflow:visible" />
        <path
           d="m 63.008265,16.283608 2.146574,4.293148"
           id="path3164"
           style="fill:none;stroke:#000000;stroke-width:1.5;stroke-linecap:butt;stroke-linejoin:miter;stroke-miterlimit:4;stroke-opacity:1;stroke-dasharray:none;display:inline" />
        <path
           d="m 73.993674,16.914953 -2.65165,3.788072"
           id="path3166"
           style="fill:none;stroke:#000000;stroke-width:1.5;stroke-linecap:butt;stroke-linejoin:miter;stroke-miterlimit:4;stroke-opacity:1;stroke-dasharray:none;display:inline" />
        <path
           d="m 79.549513,26.511402 -5.050763,0"
           id="path3168"
           style="fill:none;stroke:#000000;stroke-width:1.5;stroke-linecap:butt;stroke-linejoin:miter;stroke-miterlimit:4;stroke-opacity:1;stroke-dasharray:none;display:inline" />
        <path
           d="M 74.372481,36.107851 71.342024,31.562165"
           id="path3170"
           style="fill:none;stroke:#000000;stroke-width:1.5;stroke-linecap:butt;stroke-linejoin:miter;stroke-miterlimit:4;stroke-opacity:1;stroke-dasharray:none;display:inline" />
        <path
           d="m 62.755727,35.476506 2.65165,-3.914341"
           id="path3172"
           style="fill:none;stroke:#000000;stroke-width:1.5;stroke-linecap:butt;stroke-linejoin:miter;stroke-miterlimit:4;stroke-opacity:1;stroke-dasharray:none;display:inline" />
        <path
           d="m 56.694812,26.637671 5.050762,0"
           id="path3174"
           style="fill:none;stroke:#000000;stroke-width:1.5;stroke-linecap:butt;stroke-linejoin:miter;stroke-miterlimit:4;stroke-opacity:1;stroke-dasharray:none;display:inline" />
      </g>
      <g
         transform="translate(-8.144354,45.63475)"
         id="g3197"
         style="stroke:#000000;stroke-width:1.5;stroke-miterlimit:4;stroke-opacity:1;stroke-dasharray:none">
        <path
           d="m 43.639094,-8.125 a 5.5140939,5.5140939 0 1 1 -11.028188,0 5.5140939,5.5140939 0 1 1 11.028188,0 z"
           transform="matrix(1.144103,0,0,1.144027,16.21204,20.04604)"
           id="path3199"
           style="color:#000000;fill:#f8b9b9;fill-opacity:1;fill-rule:evenodd;stroke:#000000;stroke-width:1.31111431;stroke-linecap:butt;stroke-linejoin:round;stroke-miterlimit:4;stroke-opacity:1;stroke-dasharray:none;stroke-dashoffset:0;marker:none;visibility:visible;display:inline;overflow:visible" />
        <path
           d="m 43.639094,-8.125 a 5.5140939,5.5140939 0 1 1 -11.028188,0 5.5140939,5.5140939 0 1 1 11.028188,0 z"
           transform="matrix(1.144103,0,0,1.144027,33.40521,20.78061)"
           id="path3201"
           style="color:#000000;fill:#f8b9b9;fill-opacity:1;fill-rule:evenodd;stroke:#000000;stroke-width:1.31111431;stroke-linecap:butt;stroke-linejoin:round;stroke-miterlimit:4;stroke-opacity:1;stroke-dasharray:none;stroke-dashoffset:0;marker:none;visibility:visible;display:inline;overflow:visible" />
        <path
           d="m 43.639094,-8.125 a 5.5140939,5.5140939 0 1 1 -11.028188,0 5.5140939,5.5140939 0 1 1 11.028188,0 z"
           transform="matrix(1.144103,0,0,1.144027,42.49658,35.55408)"
           id="path3203"
           style="color:#000000;fill:#f8b9b9;fill-opacity:1;fill-rule:evenodd;stroke:#000000;stroke-width:1.31111431;stroke-linecap:butt;stroke-linejoin:round;stroke-miterlimit:4;stroke-opacity:1;stroke-dasharray:none;stroke-dashoffset:0;marker:none;visibility:visible;display:inline;overflow:visible" />
        <path
           d="m 43.639094,-8.125 a 5.5140939,5.5140939 0 1 1 -11.028188,0 5.5140939,5.5140939 0 1 1 11.028188,0 z"
           transform="matrix(1.144103,0,0,1.144027,34.16281,50.70637)"
           id="path3205"
           style="color:#000000;fill:#f8b9b9;fill-opacity:1;fill-rule:evenodd;stroke:#000000;stroke-width:1.31111431;stroke-linecap:butt;stroke-linejoin:round;stroke-miterlimit:4;stroke-opacity:1;stroke-dasharray:none;stroke-dashoffset:0;marker:none;visibility:visible;display:inline;overflow:visible" />
        <path
           d="m 43.639094,-8.125 a 5.5140939,5.5140939 0 1 1 -11.028188,0 5.5140939,5.5140939 0 1 1 11.028188,0 z"
           transform="matrix(1.144103,0,0,1.144027,16.61142,50.32757)"
           id="path3207"
           style="color:#000000;fill:#f8b9b9;fill-opacity:1;fill-rule:evenodd;stroke:#000000;stroke-width:1.31111431;stroke-linecap:butt;stroke-linejoin:round;stroke-miterlimit:4;stroke-opacity:1;stroke-dasharray:none;stroke-dashoffset:0;marker:none;visibility:visible;display:inline;overflow:visible" />
        <path
           d="m 43.639094,-8.125 a 5.5140939,5.5140939 0 1 1 -11.028188,0 5.5140939,5.5140939 0 1 1 11.028188,0 z"
           transform="matrix(1.144103,0,0,1.144027,7.014966,35.30154)"
           id="path3209"
           style="color:#000000;fill:#f8b9b9;fill-opacity:1;fill-rule:evenodd;stroke:#000000;stroke-width:1.31111431;stroke-linecap:butt;stroke-linejoin:round;stroke-miterlimit:4;stroke-opacity:1;stroke-dasharray:none;stroke-dashoffset:0;marker:none;visibility:visible;display:inline;overflow:visible" />
        <path
           d="m 43.639094,-8.125 a 5.5140939,5.5140939 0 1 1 -11.028188,0 5.5140939,5.5140939 0 1 1 11.028188,0 z"
           transform="matrix(1.144103,0,0,1.144027,24.4401,35.30155)"
           id="path3211"
           style="color:#000000;fill:#e21a1a;fill-opacity:1;fill-rule:evenodd;stroke:#000000;stroke-width:1.31111431;stroke-linecap:butt;stroke-linejoin:round;stroke-miterlimit:4;stroke-opacity:1;stroke-dasharray:none;stroke-dashoffset:0;marker:none;visibility:visible;display:inline;overflow:visible" />
        <path
           d="m 63.008265,16.283608 2.146574,4.293148"
           id="path3213"
           style="fill:none;stroke:#000000;stroke-width:1.5;stroke-linecap:butt;stroke-linejoin:miter;stroke-miterlimit:4;stroke-opacity:1;stroke-dasharray:none;display:inline" />
        <path
           d="m 73.993674,16.914953 -2.65165,3.788072"
           id="path3215"
           style="fill:none;stroke:#000000;stroke-width:1.5;stroke-linecap:butt;stroke-linejoin:miter;stroke-miterlimit:4;stroke-opacity:1;stroke-dasharray:none;display:inline" />
        <path
           d="m 79.549513,26.511402 -5.050763,0"
           id="path3217"
           style="fill:none;stroke:#000000;stroke-width:1.5;stroke-linecap:butt;stroke-linejoin:miter;stroke-miterlimit:4;stroke-opacity:1;stroke-dasharray:none;display:inline" />
        <path
           d="M 74.372481,36.107851 71.342024,31.562165"
           id="path3219"
           style="fill:none;stroke:#000000;stroke-width:1.5;stroke-linecap:butt;stroke-linejoin:miter;stroke-miterlimit:4;stroke-opacity:1;stroke-dasharray:none;display:inline" />
        <path
           d="m 62.755727,35.476506 2.65165,-3.914341"
           id="path3221"
           style="fill:none;stroke:#000000;stroke-width:1.5;stroke-linecap:butt;stroke-linejoin:miter;stroke-miterlimit:4;stroke-opacity:1;stroke-dasharray:none;display:inline" />
        <path
           d="m 56.694812,26.637671 5.050762,0"
           id="path3223"
           style="fill:none;stroke:#000000;stroke-width:1.5;stroke-linecap:butt;stroke-linejoin:miter;stroke-miterlimit:4;stroke-opacity:1;stroke-dasharray:none;display:inline" />
      </g>
      <g
         transform="translate(-43.41543,14.17606)"
         id="g3225"
         style="stroke:#000000;stroke-width:1.5;stroke-miterlimit:4;stroke-opacity:1;stroke-dasharray:none">
        <path
           d="m 43.639094,-8.125 a 5.5140939,5.5140939 0 1 1 -11.028188,0 5.5140939,5.5140939 0 1 1 11.028188,0 z"
           transform="matrix(1.144103,0,0,1.144027,16.21204,20.04604)"
           id="path3227"
           style="color:#000000;fill:#a5bfff;fill-opacity:1;fill-rule:evenodd;stroke:#000000;stroke-width:1.31111431;stroke-linecap:butt;stroke-linejoin:round;stroke-miterlimit:4;stroke-opacity:1;stroke-dasharray:none;stroke-dashoffset:0;marker:none;visibility:visible;display:inline;overflow:visible" />
        <path
           d="m 43.639094,-8.125 a 5.5140939,5.5140939 0 1 1 -11.028188,0 5.5140939,5.5140939 0 1 1 11.028188,0 z"
           transform="matrix(1.144103,0,0,1.144027,33.40521,20.78061)"
           id="path3229"
           style="color:#000000;fill:#a5bfff;fill-opacity:1;fill-rule:evenodd;stroke:#000000;stroke-width:1.31111431;stroke-linecap:butt;stroke-linejoin:round;stroke-miterlimit:4;stroke-opacity:1;stroke-dasharray:none;stroke-dashoffset:0;marker:none;visibility:visible;display:inline;overflow:visible" />
        <path
           d="m 43.639094,-8.125 a 5.5140939,5.5140939 0 1 1 -11.028188,0 5.5140939,5.5140939 0 1 1 11.028188,0 z"
           transform="matrix(1.144103,0,0,1.144027,42.49658,35.55408)"
           id="path3231"
           style="color:#000000;fill:#a5bfff;fill-opacity:1;fill-rule:evenodd;stroke:#000000;stroke-width:1.31111431;stroke-linecap:butt;stroke-linejoin:round;stroke-miterlimit:4;stroke-opacity:1;stroke-dasharray:none;stroke-dashoffset:0;marker:none;visibility:visible;display:inline;overflow:visible" />
        <path
           d="m 43.639094,-8.125 a 5.5140939,5.5140939 0 1 1 -11.028188,0 5.5140939,5.5140939 0 1 1 11.028188,0 z"
           transform="matrix(1.144103,0,0,1.144027,34.16281,50.70637)"
           id="path3233"
           style="color:#000000;fill:#a5bfff;fill-opacity:1;fill-rule:evenodd;stroke:#000000;stroke-width:1.31111431;stroke-linecap:butt;stroke-linejoin:round;stroke-miterlimit:4;stroke-opacity:1;stroke-dasharray:none;stroke-dashoffset:0;marker:none;visibility:visible;display:inline;overflow:visible" />
        <path
           d="m 43.639094,-8.125 a 5.5140939,5.5140939 0 1 1 -11.028188,0 5.5140939,5.5140939 0 1 1 11.028188,0 z"
           transform="matrix(1.144103,0,0,1.144027,16.61142,50.32757)"
           id="path3235"
           style="color:#000000;fill:#a5bfff;fill-opacity:1;fill-rule:evenodd;stroke:#000000;stroke-width:1.31111431;stroke-linecap:butt;stroke-linejoin:round;stroke-miterlimit:4;stroke-opacity:1;stroke-dasharray:none;stroke-dashoffset:0;marker:none;visibility:visible;display:inline;overflow:visible" />
        <path
           d="m 43.639094,-8.125 a 5.5140939,5.5140939 0 1 1 -11.028188,0 5.5140939,5.5140939 0 1 1 11.028188,0 z"
           transform="matrix(1.144103,0,0,1.144027,7.014966,35.30154)"
           id="path3237"
           style="color:#000000;fill:#a5bfff;fill-opacity:1;fill-rule:evenodd;stroke:#000000;stroke-width:1.31111431;stroke-linecap:butt;stroke-linejoin:round;stroke-miterlimit:4;stroke-opacity:1;stroke-dasharray:none;stroke-dashoffset:0;marker:none;visibility:visible;display:inline;overflow:visible" />
        <path
           d="m 43.639094,-8.125 a 5.5140939,5.5140939 0 1 1 -11.028188,0 5.5140939,5.5140939 0 1 1 11.028188,0 z"
           transform="matrix(1.144103,0,0,1.144027,24.4401,35.30155)"
           id="path3239"
           style="color:#000000;fill:#1930e3;fill-opacity:1;fill-rule:evenodd;stroke:#000000;stroke-width:1.31111431;stroke-linecap:butt;stroke-linejoin:round;stroke-miterlimit:4;stroke-opacity:1;stroke-dasharray:none;stroke-dashoffset:0;marker:none;visibility:visible;display:inline;overflow:visible" />
        <path
           d="m 63.008265,16.283608 2.146574,4.293148"
           id="path3241"
           style="fill:none;stroke:#000000;stroke-width:1.5;stroke-linecap:butt;stroke-linejoin:miter;stroke-miterlimit:4;stroke-opacity:1;stroke-dasharray:none;display:inline" />
        <path
           d="m 73.993674,16.914953 -2.65165,3.788072"
           id="path3243"
           style="fill:none;stroke:#000000;stroke-width:1.5;stroke-linecap:butt;stroke-linejoin:miter;stroke-miterlimit:4;stroke-opacity:1;stroke-dasharray:none;display:inline" />
        <path
           d="m 79.549513,26.511402 -5.050763,0"
           id="path3245"
           style="fill:none;stroke:#000000;stroke-width:1.5;stroke-linecap:butt;stroke-linejoin:miter;stroke-miterlimit:4;stroke-opacity:1;stroke-dasharray:none;display:inline" />
        <path
           d="M 74.372481,36.107851 71.342024,31.562165"
           id="path3247"
           style="fill:none;stroke:#000000;stroke-width:1.5;stroke-linecap:butt;stroke-linejoin:miter;stroke-miterlimit:4;stroke-opacity:1;stroke-dasharray:none;display:inline" />
        <path
           d="m 62.755727,35.476506 2.65165,-3.914341"
           id="path3249"
           style="fill:none;stroke:#000000;stroke-width:1.5;stroke-linecap:butt;stroke-linejoin:miter;stroke-miterlimit:4;stroke-opacity:1;stroke-dasharray:none;display:inline" />
        <path
           d="m 56.694812,26.637671 5.050762,0"
           id="path3251"
           style="fill:none;stroke:#000000;stroke-width:1.5;stroke-linecap:butt;stroke-linejoin:miter;stroke-miterlimit:4;stroke-opacity:1;stroke-dasharray:none;display:inline" />
      </g>
      <g
         id="g3261"
         style="stroke:#000000;stroke-width:1.5;stroke-miterlimit:4;stroke-opacity:1;stroke-dasharray:none">
        <path
           d="M 39.774757,65.907352 37.249375,61.235396"
           id="path3255"
           style="fill:none;stroke:#000000;stroke-width:1.5;stroke-linecap:butt;stroke-linejoin:miter;stroke-miterlimit:4;stroke-opacity:1;stroke-dasharray:none" />
        <path
           d="M 66.038723,51.512678 63.008265,46.714453"
           id="path3257"
           style="fill:none;stroke:#000000;stroke-width:1.5;stroke-linecap:butt;stroke-linejoin:miter;stroke-miterlimit:4;stroke-opacity:1;stroke-dasharray:none" />
        <path
           d="M 47.350901,31.435896 45.709403,34.97143"
           id="path3259"
           style="fill:none;stroke:#000000;stroke-width:1.5;stroke-linecap:butt;stroke-linejoin:miter;stroke-miterlimit:4;stroke-opacity:1;stroke-dasharray:none" />
      </g>
    </g>
  </g>
</svg>
